<svg width="25" height="25" viewBox="0 0 25 25" fill="none" xmlns="http://www.w3.org/2000/svg">
<g clip-path="url(#clip0_88_120)">
<path d="M12.5 0C10.0277 0 7.61099 0.733112 5.55538 2.10663C3.49976 3.48015 1.89761 5.43238 0.951511 7.71646C0.00541601 10.0005 -0.242126 12.5139 0.24019 14.9386C0.722505 17.3634 1.91301 19.5907 3.66117 21.3388C5.40933 23.087 7.63661 24.2775 10.0614 24.7598C12.4861 25.2421 14.9995 24.9946 17.2835 24.0485C19.5676 23.1024 21.5199 21.5002 22.8934 19.4446C24.2669 17.389 25 14.9723 25 12.5C24.9964 9.1859 23.6783 6.00858 21.3348 3.66516C18.9914 1.32174 15.8141 0.00361886 12.5 0V0ZM12.5 23.8281C10.2595 23.8281 8.06934 23.1637 6.20644 21.919C4.34354 20.6742 2.89158 18.905 2.03418 16.8351C1.17678 14.7651 0.952449 12.4874 1.38955 10.29C1.82665 8.09255 2.90554 6.07407 4.48981 4.48981C6.07408 2.90554 8.09256 1.82664 10.29 1.38954C12.4874 0.952444 14.7651 1.17678 16.8351 2.03418C18.905 2.89158 20.6742 4.34353 21.919 6.20643C23.1637 8.06933 23.8281 10.2595 23.8281 12.5C23.8245 15.5033 22.6299 18.3825 20.5062 20.5062C18.3826 22.6298 15.5033 23.8245 12.5 23.8281Z" fill="#C42A2A"/>
<path d="M17.5781 11.9141H7.42188C7.26647 11.9141 7.11744 11.9758 7.00755 12.0857C6.89767 12.1956 6.83594 12.3446 6.83594 12.5C6.83594 12.6554 6.89767 12.8044 7.00755 12.9143C7.11744 13.0242 7.26647 13.0859 7.42188 13.0859H17.5781C17.7335 13.0859 17.8826 13.0242 17.9924 12.9143C18.1023 12.8044 18.1641 12.6554 18.1641 12.5C18.1641 12.3446 18.1023 12.1956 17.9924 12.0857C17.8826 11.9758 17.7335 11.9141 17.5781 11.9141Z" fill="#C42A2A"/>
</g>
<defs>
<clipPath id="clip0_88_120">
<rect width="25" height="25" fill="white"/>
</clipPath>
</defs>
</svg>
