<svg width="32" height="32" fill="none" xmlns="http://www.w3.org/2000/svg"><rect width="32" height="32" rx="16" fill="#D9D9D9"/><path d="M7.953 12.01a8.667 8.667 0 012.39-2.958 9.038 9.038 0 014.72-1.983c2.077-.24 4.03.144 5.834 1.2.449.262.868.56 1.269.884.099.079.088.126.003.205-.82.797-1.64 1.595-2.452 2.4-.095.093-.147.086-.25.01-2.382-1.792-5.856-1.307-7.632 1.064a5.196 5.196 0 00-.742 1.354c-.015.044-.044.083-.066.126-.475-.352-.953-.704-1.423-1.06-.552-.413-1.103-.826-1.65-1.243zm3.073 5.672c.158.341.29.697.49 1.017.834 1.336 2.025 2.195 3.595 2.5 1.415.277 2.775.09 4.044-.603.044-.022.088-.043.128-.065.022.022.04.047.063.065l2.849 2.156a7.26 7.26 0 01-1.526 1.106c-1.599.891-3.33 1.25-5.154 1.114-2.272-.173-4.231-1.05-5.849-2.63a8.222 8.222 0 01-1.717-2.371l1.18-.88c.633-.471 1.265-.938 1.897-1.409z" fill="#fff"/><path d="M22.199 22.752l-2.85-2.156a.53.53 0 01-.062-.065c.327-.248.662-.488.93-.804a4.141 4.141 0 00.9-1.782c.02-.083.005-.112-.08-.108-.044.003-.085 0-.129 0-1.5 0-3.003-.004-4.503.003-.166 0-.202-.043-.199-.197.008-1.042.008-2.084 0-3.126 0-.133.037-.169.173-.169 2.75.004 5.5.004 8.253 0 .118 0 .166.029.195.151.224.988.21 1.98.074 2.978a9.56 9.56 0 01-.614 2.318 8.235 8.235 0 01-1.993 2.892c-.033.025-.066.043-.095.065zm-11.173-5.07L9.13 19.091c-.393.29-.786.585-1.18.88-.305-.553-.503-1.14-.665-1.743a8.858 8.858 0 01-.188-3.542 8.108 8.108 0 01.853-2.673c.552.413 1.1.83 1.651 1.243.474.356.949.708 1.423 1.06-.081.384-.195.761-.232 1.157a5.47 5.47 0 00.213 2.109.29.29 0 01.022.1z" fill="#fff"/></svg>