<svg width="50" height="50" viewBox="0 0 50 50" fill="none" xmlns="http://www.w3.org/2000/svg">
<circle cx="25" cy="25" r="25" fill="#F5F7FA"/>
<g clip-path="url(#clip0_117_3)">
<path d="M24.5 11C21.83 11 19.2199 11.7918 16.9998 13.2752C14.7797 14.7586 13.0494 16.867 12.0276 19.3338C11.0058 21.8006 10.7385 24.515 11.2594 27.1337C11.7803 29.7525 13.0661 32.1579 14.9541 34.0459C16.8421 35.934 19.2475 37.2197 21.8663 37.7406C24.485 38.2615 27.1994 37.9942 29.6662 36.9724C32.133 35.9506 34.2415 34.2203 35.7249 32.0002C37.2082 29.7801 38 27.17 38 24.5C37.9961 20.9208 36.5725 17.4893 34.0416 14.9584C31.5107 12.4275 28.0792 11.0039 24.5 11V11ZM24.5 36.7344C22.0803 36.7344 19.7149 36.0168 17.703 34.6725C15.691 33.3282 14.1229 31.4174 13.1969 29.1819C12.2709 26.9464 12.0286 24.4864 12.5007 22.1132C12.9728 19.74 14.138 17.56 15.849 15.849C17.56 14.138 19.74 12.9728 22.1132 12.5007C24.4864 12.0286 26.9464 12.2709 29.1819 13.1969C31.4174 14.1229 33.3282 15.691 34.6725 17.7029C36.0169 19.7149 36.7344 22.0803 36.7344 24.5C36.7305 27.7436 35.4402 30.8531 33.1467 33.1467C30.8532 35.4402 27.7436 36.7305 24.5 36.7344Z" fill="#979899"/>
<path d="M23.2598 18.5684C23.1399 18.4567 22.9812 18.3958 22.8173 18.3987C22.6533 18.4016 22.4969 18.468 22.381 18.5839C22.265 18.6999 22.1986 18.8563 22.1957 19.0202C22.1928 19.1842 22.2537 19.3428 22.3655 19.4628L27.4027 24.5L22.3655 29.5372C22.3033 29.5951 22.2534 29.665 22.2188 29.7426C22.1843 29.8202 22.1657 29.904 22.1642 29.989C22.1627 30.074 22.1783 30.1584 22.2101 30.2372C22.2419 30.3159 22.2893 30.3875 22.3494 30.4476C22.4095 30.5077 22.4811 30.5551 22.5599 30.5869C22.6387 30.6187 22.7231 30.6344 22.808 30.6329C22.893 30.6314 22.9768 30.6128 23.0544 30.5782C23.1321 30.5436 23.2019 30.4937 23.2598 30.4316L28.7442 24.9472C28.8627 24.8285 28.9293 24.6677 28.9293 24.5C28.9293 24.3323 28.8627 24.1715 28.7442 24.0528L23.2598 18.5684Z" fill="#979899"/>
</g>
<defs>
<clipPath id="clip0_117_3">
<rect width="27" height="27" fill="white" transform="translate(11 11)"/>
</clipPath>
</defs>
</svg>
