<svg width="50" height="50" fill="none" xmlns="http://www.w3.org/2000/svg"><circle cx="25" cy="25" r="25" fill="#F5F7FA"/><g clip-path="url(#clip0_117_3)" fill="#979899"><path d="M24.5 11A13.5 13.5 0 1038 24.5 13.515 13.515 0 0024.5 11zm0 25.734A12.234 12.234 0 1136.734 24.5 12.25 12.25 0 0124.5 36.734z"/><path d="M23.26 18.568a.633.633 0 00-.895.895l5.038 5.037-5.037 5.037a.633.633 0 10.894.895l5.484-5.485a.633.633 0 000-.894l-5.484-5.485z"/></g><defs><clipPath id="clip0_117_3"><path fill="#fff" transform="translate(11 11)" d="M0 0h27v27H0z"/></clipPath></defs></svg>