<svg width="32" height="32" fill="none" xmlns="http://www.w3.org/2000/svg"><g clip-path="url(#clip0_51_230)" fill="#979899"><path d="M16 9.75a6.25 6.25 0 100 12.5 6.25 6.25 0 000-12.5zm0 11a4.75 4.75 0 110-9.5 4.75 4.75 0 010 9.5z"/><path d="M30.25 12h-2.233a.25.25 0 01-.235-.17 12.474 12.474 0 00-.5-1.213.25.25 0 01.046-.287l1.577-1.58a1.751 1.751 0 000-2.475l-3.183-3.18a1.75 1.75 0 00-2.475 0L21.67 4.673a.25.25 0 01-.288.045c-.395-.188-.8-.355-1.212-.5a.25.25 0 01-.17-.236V1.75A1.75 1.75 0 0018.25 0h-4.5A1.75 1.75 0 0012 1.75v2.232a.25.25 0 01-.17.236 12.42 12.42 0 00-1.213.5.25.25 0 01-.287-.045L8.75 3.095a1.75 1.75 0 00-2.475 0l-3.18 3.182a1.75 1.75 0 000 2.475l1.578 1.578a.25.25 0 01.045.287c-.188.396-.355.8-.5 1.213a.25.25 0 01-.236.17H1.75A1.75 1.75 0 000 13.75v4.5A1.75 1.75 0 001.75 20h2.232a.25.25 0 01.236.17c.145.413.312.817.5 1.212a.25.25 0 01-.045.288l-1.578 1.58a1.75 1.75 0 000 2.475l3.182 3.182a1.751 1.751 0 002.475 0l1.578-1.577a.25.25 0 01.287-.045c.396.188.8.355 1.213.5a.25.25 0 01.17.235v2.23A1.75 1.75 0 0013.75 32h4.5A1.75 1.75 0 0020 30.25v-2.233a.25.25 0 01.17-.235 12.3 12.3 0 001.212-.5.25.25 0 01.288.046l1.58 1.577a1.75 1.75 0 002.475 0l3.182-3.183a1.75 1.75 0 000-2.475L27.33 21.67a.25.25 0 01-.045-.288c.188-.395.355-.8.5-1.212a.25.25 0 01.235-.17h2.23A1.75 1.75 0 0032 18.25v-4.5A1.75 1.75 0 0030.25 12zm.25 6.25a.25.25 0 01-.25.25h-2.233a1.75 1.75 0 00-1.65 1.172 10.62 10.62 0 01-.44 1.066 1.75 1.75 0 00.338 2l1.578 1.577a.25.25 0 010 .352l-3.18 3.178a.25.25 0 01-.353 0l-1.577-1.578a1.75 1.75 0 00-2-.337 10.97 10.97 0 01-1.068.44 1.75 1.75 0 00-1.17 1.65v2.23a.25.25 0 01-.25.25H13.75a.25.25 0 01-.25-.25v-2.233a1.75 1.75 0 00-1.172-1.65 10.965 10.965 0 01-1.066-.44 1.75 1.75 0 00-2 .338l-1.577 1.578a.25.25 0 01-.353 0l-3.177-3.18a.25.25 0 010-.353l1.577-1.577a1.75 1.75 0 00.338-2 10.977 10.977 0 01-.44-1.068A1.75 1.75 0 003.983 18.5H1.75a.25.25 0 01-.25-.25v-4.5a.25.25 0 01.25-.25h2.232a1.75 1.75 0 001.65-1.172c.128-.363.275-.718.44-1.066a1.75 1.75 0 00-.337-2L4.157 7.685a.25.25 0 010-.353l3.18-3.177a.25.25 0 01.353 0l1.577 1.577a1.75 1.75 0 002 .338c.348-.165.705-.312 1.068-.44A1.75 1.75 0 0013.5 3.983V1.75a.25.25 0 01.25-.25h4.5a.25.25 0 01.25.25v2.232a1.75 1.75 0 001.172 1.65c.363.128.718.275 1.066.44a1.75 1.75 0 002-.337l1.577-1.578a.25.25 0 01.352 0L27.85 7.34a.25.25 0 010 .353L26.272 9.27a1.75 1.75 0 00-.337 2c.165.348.312.704.44 1.068a1.75 1.75 0 001.65 1.17h2.225a.25.25 0 01.25.25v4.492z"/></g><defs><clipPath id="clip0_51_230"><path fill="#fff" d="M0 0h32v32H0z"/></clipPath></defs></svg>