<svg width="39" height="48" viewBox="0 0 39 48" fill="none" xmlns="http://www.w3.org/2000/svg">
<path d="M37.9488 11.876C37.9488 11.8666 37.9488 11.8666 37.9395 11.8573C37.8926 11.7455 37.8271 11.6522 37.7522 11.559C37.7522 11.559 37.7522 11.5497 37.7428 11.5497L33.6407 7.29896V3.88719C33.6407 1.74318 31.8894 0 29.7353 0H4.83255C2.6223 0 0.833496 1.78978 0.833496 3.98041V40.0091C0.833496 42.2091 2.63166 43.9895 4.83255 43.9895H5.2259C5.40384 46.0217 7.12709 47.625 9.20622 47.625H34.006C36.2162 47.625 38.005 45.8353 38.005 43.6446V12.2209C38.0144 12.0997 37.9863 11.9785 37.9488 11.876ZM30.6531 7.01931L34.7458 11.2514H30.6531V7.01931ZM2.79088 40.0185V3.98041C2.79088 2.85247 3.70869 1.93893 4.84191 1.93893H29.7447C30.8217 1.93893 31.6927 2.80586 31.6927 3.87787V5.27613L30.3815 3.9338C30.3815 3.9338 30.3722 3.9338 30.3722 3.92447C30.3441 3.89651 30.3066 3.86854 30.2785 3.84058C30.2598 3.83126 30.2504 3.81261 30.2317 3.80329C30.1849 3.766 30.1287 3.73804 30.0725 3.7194C30.0725 3.7194 30.0725 3.7194 30.0631 3.7194C29.9414 3.67279 29.8196 3.64482 29.6791 3.64482H9.21558C7.00534 3.64482 5.21653 5.43461 5.21653 7.62523V42.0599H4.84191C3.70869 42.0506 2.79088 41.1371 2.79088 40.0185ZM34.0153 45.6861H9.21558C8.08236 45.6861 7.16455 44.7726 7.16455 43.6446V7.6159C7.16455 6.48797 8.08236 5.57443 9.21558 5.57443H28.6957V12.2209C28.6957 12.7615 29.1359 13.1903 29.6698 13.1903H36.057V43.6446C36.057 44.7726 35.1392 45.6861 34.0153 45.6861Z" fill="#979899"/>
<path d="M22.8604 13.1997H24.7054C25.2486 13.1997 25.6794 12.7616 25.6794 12.2302C25.6794 11.6895 25.2392 11.2607 24.7054 11.2607H22.8604C22.3172 11.2607 21.8864 11.6989 21.8864 12.2302C21.877 12.7616 22.3172 13.1997 22.8604 13.1997Z" fill="#979899"/>
<path d="M11.3975 13.1997H17.56C18.1032 13.1997 18.534 12.7616 18.534 12.2302C18.534 11.6895 18.0938 11.2607 17.56 11.2607H11.3975C10.8543 11.2607 10.4235 11.6989 10.4235 12.2302C10.4141 12.7616 10.8543 13.1997 11.3975 13.1997Z" fill="#979899"/>
<path d="M31.1118 35.9448H17.5599C17.0167 35.9448 16.5859 36.3829 16.5859 36.9143C16.5859 37.4456 17.0261 37.8838 17.5599 37.8838H31.1118C31.655 37.8838 32.0858 37.4456 32.0858 36.9143C32.0858 36.3829 31.655 35.9448 31.1118 35.9448Z" fill="#979899"/>
<path d="M13.7855 35.9448H11.3973C10.8542 35.9448 10.4233 36.3829 10.4233 36.9143C10.4233 37.4456 10.8635 37.8838 11.3973 37.8838H13.7855C14.3287 37.8838 14.7595 37.4456 14.7595 36.9143C14.7595 36.3829 14.3287 35.9448 13.7855 35.9448Z" fill="#979899"/>
<path d="M31.1115 29.8671H27.4496C26.9064 29.8671 26.4756 30.3052 26.4756 30.8365C26.4756 31.3679 26.9158 31.806 27.4496 31.806H31.1115C31.6547 31.806 32.0855 31.3679 32.0855 30.8365C32.0855 30.3052 31.6547 29.8671 31.1115 29.8671Z" fill="#979899"/>
<path d="M11.3973 31.8153H22.2051C22.7483 31.8153 23.1791 31.3772 23.1791 30.8458C23.1791 30.3145 22.7389 29.8763 22.2051 29.8763H11.3973C10.8542 29.8763 10.4233 30.3145 10.4233 30.8458C10.4233 31.3772 10.8542 31.8153 11.3973 31.8153Z" fill="#979899"/>
<path d="M31.1123 23.7799H23.7792C23.236 23.7799 22.8052 24.218 22.8052 24.7494C22.8052 25.2807 23.2454 25.7188 23.7792 25.7188H31.1123C31.6555 25.7188 32.0863 25.2807 32.0863 24.7494C32.0863 24.218 31.6555 23.7799 31.1123 23.7799Z" fill="#979899"/>
<path d="M11.3979 25.7281H18.8622C19.4054 25.7281 19.8362 25.29 19.8362 24.7587C19.8362 24.2273 19.396 23.7892 18.8622 23.7892H11.3886C10.8454 23.7892 10.4146 24.2273 10.4146 24.7587C10.4146 25.29 10.8547 25.7281 11.3979 25.7281Z" fill="#979899"/>
<path d="M31.1118 17.5156H17.5599C17.0167 17.5156 16.5859 17.9538 16.5859 18.4851C16.5859 19.0258 17.0261 19.4546 17.5599 19.4546H31.1118C31.655 19.4546 32.0858 19.0164 32.0858 18.4851C32.0858 17.9538 31.655 17.5156 31.1118 17.5156Z" fill="#979899"/>
<path d="M11.3975 19.464H13.1582C13.7014 19.464 14.1322 19.0258 14.1322 18.4945C14.1322 17.9538 13.692 17.525 13.1582 17.525H11.3975C10.8543 17.525 10.4235 17.9631 10.4235 18.4945C10.4141 19.0258 10.8543 19.464 11.3975 19.464Z" fill="#979899"/>
</svg>
