<svg width="39" height="25" fill="none" xmlns="http://www.w3.org/2000/svg"><path d="M25.459 6.206V6.18a6.183 6.183 0 00-12.236-1.252 6.1 6.1 0 00-.124 1.21l-.003.042a6.179 6.179 0 005.355 6.12c.271.035.546.061.827.061.248 0 .488-.016.727-.046a6.183 6.183 0 005.454-6.11zm8.03 8.461l-2.482 3.305-2.482-3.305c-.29.102-.568.228-.843.366a11.033 11.033 0 013.225 7.818V25h7.544v-3.209c0-3.294-2.074-6.085-4.962-7.124zm-6.001-8.4a4.51 4.51 0 00-.404.552 4.537 4.537 0 00-.643 3.264c.162.92.59 1.743 1.207 2.39.32.34.692.63 1.103.862a4.638 4.638 0 006.893-4.053 4.64 4.64 0 00-3.361-4.457 5.664 5.664 0 00-.503-.112 5.263 5.263 0 00-.415-.049c-.118-.008-.236-.02-.358-.02-1.41 0-2.669.632-3.519 1.623zm-22.424 8.4l2.483 3.305 2.482-3.305c.29.102.568.228.843.366a11.025 11.025 0 00-3.225 7.818V25H.103v-3.209c0-3.294 2.074-6.085 4.96-7.124zm6.002-8.4a4.613 4.613 0 011.12 3.015 4.55 4.55 0 01-.075.8 4.596 4.596 0 01-1.205 2.39 4.653 4.653 0 01-1.103.863A4.638 4.638 0 012.91 9.282a4.64 4.64 0 013.362-4.457 4.905 4.905 0 01.917-.16c.119-.009.236-.021.358-.021 1.41 0 2.669.632 3.519 1.623zm14.598 8.886a9.988 9.988 0 00-2.166-1.411 9.706 9.706 0 00-.915-.39l-.798 1.068-1.78 2.371-.73.971-.825-1.099-1.657-2.212-.823-1.099a11.07 11.07 0 00-.961.413 9.883 9.883 0 00-3.175 2.44 10.097 10.097 0 00-2.48 6.646V25H29.2v-2.149a10.112 10.112 0 00-3.536-7.698z" fill="#fff"/></svg>