<svg width="26" height="22" fill="none" xmlns="http://www.w3.org/2000/svg"><path d="M25 4H8a1 1 0 010-2h17a1 1 0 110 2zM4 4H1a1 1 0 010-2h3a1 1 0 010 2zm14 8H1a1 1 0 010-2h17a1 1 0 010 2zM8 20H1a1 1 0 010-2h7a1 1 0 010 2z" fill="#425FEB"/><path d="M6 6a3 3 0 110-6 3 3 0 010 6zm0-4a1 1 0 100 2 1 1 0 000-2zm14 12a3 3 0 110-5.999A3 3 0 0120 14zm0-4a1 1 0 100 2.002A1 1 0 0020 10zM10 22a3 3 0 110-6 3 3 0 010 6zm0-4a1 1 0 100 2 1 1 0 000-2z" fill="#425FEB"/><path d="M25 12h-3a1 1 0 010-2h3a1 1 0 010 2zm0 8H12a1 1 0 010-2h13a1 1 0 010 2z" fill="#425FEB"/></svg>