<svg width="23" height="21" viewBox="0 0 23 21" fill="none" xmlns="http://www.w3.org/2000/svg">
<path d="M21.5136 16.5319C22.113 15.4113 22.4301 14.1615 22.4373 12.8908C22.4446 11.62 22.1418 10.3667 21.5552 9.23938C20.9686 8.11208 20.1159 7.14486 19.0711 6.42156C18.0262 5.69826 16.8208 5.2407 15.5591 5.08854C15.1446 4.11871 14.5381 3.24284 13.776 2.51373C13.0139 1.78462 12.1121 1.21737 11.1249 0.846153C10.1376 0.47494 9.0855 0.307456 8.03182 0.353798C6.97814 0.400139 5.94476 0.659346 4.99395 1.11579C4.04315 1.57224 3.1946 2.21648 2.49947 3.00968C1.80433 3.80288 1.277 4.72862 0.94925 5.7311C0.621502 6.73357 0.500126 7.79203 0.592436 8.84268C0.684747 9.89333 0.988834 10.9144 1.48637 11.8444L0.882407 13.9586C0.815388 14.1931 0.812284 14.4411 0.873415 14.6772C0.934546 14.9132 1.05769 15.1286 1.23008 15.301C1.40247 15.4734 1.61784 15.5966 1.85386 15.6578C2.08988 15.719 2.33797 15.7159 2.57241 15.649L4.6869 15.0449C5.54255 15.5029 6.47619 15.7971 7.43982 15.9124C7.86583 16.909 8.49444 17.806 9.28571 18.5466C10.077 19.2872 11.0136 19.8552 12.0362 20.2144C13.0587 20.5736 14.1447 20.7163 15.2254 20.6333C16.306 20.5503 17.3575 20.2435 18.3132 19.7323L20.4276 20.3365C20.662 20.4034 20.9101 20.4065 21.1461 20.3453C21.3821 20.2841 21.5975 20.161 21.7699 19.9886C21.9423 19.8162 22.0654 19.6008 22.1266 19.3648C22.1877 19.1288 22.1847 18.8807 22.1177 18.6463L21.5136 16.5319ZM20.0012 16.0331C19.9468 16.1246 19.9116 16.2262 19.8979 16.3318C19.8842 16.4374 19.8922 16.5447 19.9215 16.647L20.5188 18.7375L18.4283 18.1402C18.3259 18.111 18.2187 18.103 18.1131 18.1167C18.0076 18.1304 17.9059 18.1656 17.8144 18.22C17.0994 18.6437 16.3071 18.9207 15.4838 19.0346C14.6606 19.1486 13.8228 19.0973 13.0196 18.8838C12.2164 18.6702 11.4637 18.2987 10.8058 17.7909C10.1478 17.2831 9.59764 16.6493 9.18748 15.9264C10.2576 15.8157 11.2933 15.4848 12.2294 14.9547C13.1656 14.4245 13.982 13.7065 14.6274 12.8458C15.2728 11.985 15.7332 11.0001 15.9798 9.95288C16.2263 8.90567 16.2537 7.81879 16.0601 6.7605C17.0146 6.98598 17.9027 7.43286 18.6526 8.06504C19.4025 8.69721 19.9931 9.49694 20.3768 10.3996C20.7604 11.3023 20.9264 12.2825 20.8611 13.2611C20.7959 14.2398 20.5013 15.1893 20.0012 16.0331V16.0331Z" fill="white"/>
</svg>
