<svg width="39" height="25" viewBox="0 0 39 25" fill="none" xmlns="http://www.w3.org/2000/svg">
<path d="M25.459 6.20573C25.459 6.1962 25.459 6.18667 25.459 6.17987C25.459 5.72775 25.4079 5.29333 25.318 4.86845C24.7168 2.08493 22.239 0 19.2784 0C16.2934 0 13.8013 2.11353 13.2225 4.92837C13.1435 5.31784 13.1 5.72367 13.0986 6.13766C13.0986 6.15126 13.0959 6.16625 13.0959 6.17987C13.0959 9.31201 15.4293 11.8954 18.4505 12.2998C18.7222 12.3352 18.9966 12.3611 19.2784 12.3611C19.5263 12.3611 19.766 12.3448 20.005 12.3148C23.0663 11.9539 25.4447 9.36105 25.459 6.20573Z" fill="white"/>
<path d="M33.4888 14.6666L31.0069 17.9717L28.525 14.6666C28.2343 14.7687 27.9572 14.8954 27.6821 15.0329C29.6717 17.028 30.9068 19.7897 30.9068 22.851V25H38.4512V21.7915C38.4512 18.4973 36.3772 15.7056 33.4888 14.6666Z" fill="white"/>
<path d="M27.488 6.26701C27.3396 6.44132 27.2048 6.6238 27.0843 6.81854C26.6335 7.53349 26.3679 8.37644 26.3679 9.28204C26.3679 9.55713 26.3952 9.82404 26.4415 10.0828C26.6029 11.0034 27.0311 11.8259 27.648 12.4728C27.9688 12.8132 28.3398 13.1033 28.7511 13.3348C29.4191 13.7065 30.1864 13.919 31.0069 13.919C33.5664 13.919 35.6446 11.8436 35.6446 9.28204C35.6446 7.16443 34.2222 5.37912 32.283 4.82487C32.1182 4.77993 31.9493 4.74315 31.7798 4.71319C31.6422 4.6914 31.5047 4.67507 31.3651 4.66417C31.2466 4.65599 31.1288 4.64374 31.0069 4.64374C29.5968 4.64374 28.3385 5.27562 27.488 6.26701Z" fill="white"/>
<path d="M5.0639 14.6666L7.54714 17.9717L10.029 14.6666C10.3198 14.7687 10.5969 14.8954 10.872 15.0329C8.88034 17.028 7.64654 19.7897 7.64654 22.851V25H0.102844V21.7915C0.102844 18.4973 2.17687 15.7056 5.0639 14.6666Z" fill="white"/>
<path d="M11.0655 6.26701C11.2139 6.44132 11.3501 6.6238 11.4713 6.81854C11.9207 7.53349 12.1849 8.37644 12.1849 9.28204C12.1849 9.55713 12.1576 9.82404 12.1114 10.0828C11.9513 11.0034 11.523 11.8259 10.9062 12.4728C10.5848 12.8132 10.2144 13.1033 9.80309 13.3348C9.13513 13.7065 8.36775 13.919 7.54727 13.919C4.98776 13.919 2.90964 11.8436 2.90964 9.28204C2.90964 7.16443 4.33272 5.37912 6.27194 4.82487C6.43535 4.77993 6.60354 4.74315 6.77716 4.71319C6.90926 4.6914 7.04952 4.67507 7.18911 4.66417C7.30759 4.65599 7.42539 4.64374 7.54727 4.64374C8.95606 4.64374 10.2157 5.27562 11.0655 6.26701Z" fill="white"/>
<path d="M25.6637 15.1528C25.0094 14.5918 24.2802 14.1192 23.4978 13.742C23.1995 13.5976 22.8979 13.4669 22.5834 13.3525L21.7853 14.4202L20.0048 16.7911L19.2748 17.762L18.4503 16.6631L16.793 14.4515L15.9704 13.3525C15.6422 13.4737 15.3215 13.614 15.009 13.7652C14.2266 14.1451 13.5015 14.6203 12.8464 15.1882C12.4856 15.5001 12.1465 15.8419 11.8339 16.2041C10.2944 17.9745 9.3541 20.2991 9.3541 22.8511V25H29.1997V22.8511C29.1997 20.2786 28.2457 17.9404 26.6823 16.1578C26.3678 15.7997 26.0273 15.4647 25.6637 15.1528Z" fill="white"/>
</svg>
