<svg width="32" height="32" viewBox="0 0 32 32" fill="none" xmlns="http://www.w3.org/2000/svg">
<path d="M16 22C14.8133 22 13.6533 21.6481 12.6666 20.9888C11.6799 20.3295 10.9109 19.3925 10.4567 18.2961C10.0026 17.1997 9.88378 15.9933 10.1153 14.8295C10.3468 13.6656 10.9182 12.5965 11.7574 11.7574C12.5965 10.9182 13.6656 10.3468 14.8295 10.1153C15.9933 9.88378 17.1997 10.0026 18.2961 10.4567C19.3925 10.9109 20.3295 11.6799 20.9888 12.6666C21.6481 13.6533 22 14.8133 22 16C22 17.5913 21.3679 19.1174 20.2426 20.2426C19.1174 21.3679 17.5913 22 16 22ZM16 12C15.2089 12 14.4355 12.2346 13.7777 12.6741C13.1199 13.1136 12.6072 13.7384 12.3045 14.4693C12.0017 15.2002 11.9225 16.0044 12.0769 16.7804C12.2312 17.5563 12.6122 18.269 13.1716 18.8284C13.731 19.3878 14.4437 19.7688 15.2196 19.9231C15.9956 20.0775 16.7998 19.9983 17.5307 19.6955C18.2616 19.3928 18.8864 18.8801 19.3259 18.2223C19.7654 17.5645 20 16.7911 20 16C20 14.9391 19.5786 13.9217 18.8284 13.1716C18.0783 12.4214 17.0609 12 16 12Z" fill="#979899"/>
<path d="M21 31H11C9.93913 31 8.92172 30.5786 8.17157 29.8284C7.42143 29.0783 7 28.0609 7 27V24.45C7.0018 24.2514 7.06267 24.0579 7.17487 23.8941C7.28707 23.7302 7.44551 23.6035 7.63 23.53L11.27 22.07C11.3934 22.0153 11.5266 21.9861 11.6615 21.9843C11.7965 21.9824 11.9304 22.0079 12.0553 22.0592C12.1801 22.1105 12.2933 22.1865 12.388 22.2827C12.4826 22.3789 12.5569 22.4932 12.6062 22.6188C12.6555 22.7445 12.6789 22.8788 12.6749 23.0137C12.6709 23.1486 12.6396 23.2813 12.583 23.4038C12.5264 23.5263 12.4455 23.6361 12.3453 23.7265C12.2451 23.817 12.1277 23.8862 12 23.93L9 25.13V27C9 27.5304 9.21071 28.0392 9.58579 28.4142C9.96086 28.7893 10.4696 29 11 29H21C21.5304 29 22.0391 28.7893 22.4142 28.4142C22.7893 28.0392 23 27.5304 23 27V25.13L20 23.93C19.7533 23.8319 19.5558 23.6398 19.4508 23.396C19.3457 23.1522 19.3419 22.8767 19.44 22.63C19.5381 22.3834 19.7302 22.1858 19.974 22.0808C20.2178 21.9758 20.4933 21.9719 20.74 22.07L24.38 23.53C24.5645 23.6035 24.7229 23.7302 24.8351 23.8941C24.9473 24.0579 25.0082 24.2514 25.01 24.45V27C25.01 27.5261 24.9062 28.0471 24.7046 28.5331C24.5029 29.019 24.2074 29.4604 23.8349 29.832C23.4624 30.2035 23.0203 30.498 22.5338 30.6984C22.0473 30.8988 21.5261 31.0013 21 31Z" fill="#979899"/>
<path d="M9 11C8.0111 11 7.0444 10.7068 6.22215 10.1573C5.39991 9.60794 4.75904 8.82705 4.3806 7.91342C4.00217 6.99979 3.90315 5.99446 4.09608 5.02455C4.289 4.05465 4.76521 3.16373 5.46447 2.46447C6.16373 1.76521 7.05465 1.289 8.02455 1.09608C8.99446 0.90315 9.99979 1.00217 10.9134 1.3806C11.827 1.75904 12.6079 2.39991 13.1573 3.22215C13.7068 4.0444 14 5.0111 14 6C14 6.65661 13.8707 7.30679 13.6194 7.91342C13.3681 8.52005 12.9998 9.07124 12.5355 9.53554C12.0712 9.99983 11.52 10.3681 10.9134 10.6194C10.3068 10.8707 9.65661 11 9 11ZM9 3C8.40666 3 7.82664 3.17595 7.33329 3.50559C6.83994 3.83524 6.45543 4.30377 6.22836 4.85195C6.0013 5.40013 5.94189 6.00333 6.05765 6.58527C6.1734 7.16722 6.45912 7.70177 6.87868 8.12132C7.29824 8.54088 7.83279 8.8266 8.41473 8.94236C8.99667 9.05811 9.59987 8.9987 10.1481 8.77164C10.6962 8.54458 11.1648 8.16006 11.4944 7.66671C11.8241 7.17337 12 6.59335 12 6C12 5.20435 11.6839 4.44129 11.1213 3.87868C10.5587 3.31607 9.79565 3 9 3Z" fill="#979899"/>
<path d="M8 19.39H5C3.93913 19.39 2.92172 18.9686 2.17157 18.2184C1.42143 17.4683 1 16.4509 1 15.39V13.64C0.999807 13.4397 1.05976 13.244 1.17208 13.0782C1.28441 12.9124 1.44394 12.7841 1.63 12.71L4.82 11.46C5.06294 11.3636 5.33398 11.3661 5.57509 11.467C5.8162 11.568 6.00821 11.7593 6.11 12C6.15871 12.1221 6.18286 12.2527 6.18108 12.3841C6.17929 12.5156 6.1516 12.6454 6.09958 12.7661C6.04757 12.8869 5.97225 12.9962 5.87795 13.0878C5.78365 13.1794 5.6722 13.2515 5.55 13.3L3 14.32V15.39C3 15.9205 3.21071 16.4292 3.58579 16.8042C3.96086 17.1793 4.46957 17.39 5 17.39H8C8.26522 17.39 8.51957 17.4954 8.70711 17.6829C8.89464 17.8704 9 18.1248 9 18.39C9 18.6552 8.89464 18.9096 8.70711 19.0971C8.51957 19.2847 8.26522 19.39 8 19.39Z" fill="#979899"/>
<path d="M23 11C22.0111 11 21.0444 10.7068 20.2222 10.1573C19.3999 9.60794 18.759 8.82705 18.3806 7.91342C18.0022 6.99979 17.9031 5.99446 18.0961 5.02455C18.289 4.05465 18.7652 3.16373 19.4645 2.46447C20.1637 1.76521 21.0546 1.289 22.0246 1.09608C22.9945 0.90315 23.9998 1.00217 24.9134 1.3806C25.8271 1.75904 26.6079 2.39991 27.1574 3.22215C27.7068 4.0444 28 5.0111 28 6C28 7.32609 27.4732 8.59785 26.5355 9.53554C25.5979 10.4732 24.3261 11 23 11ZM23 3C22.4067 3 21.8266 3.17595 21.3333 3.50559C20.8399 3.83524 20.4554 4.30377 20.2284 4.85195C20.0013 5.40013 19.9419 6.00333 20.0576 6.58527C20.1734 7.16722 20.4591 7.70177 20.8787 8.12132C21.2982 8.54088 21.8328 8.8266 22.4147 8.94236C22.9967 9.05811 23.5999 8.9987 24.1481 8.77164C24.6962 8.54458 25.1648 8.16006 25.4944 7.66671C25.8241 7.17337 26 6.59335 26 6C26 5.20435 25.6839 4.44129 25.1213 3.87868C24.5587 3.31607 23.7957 3 23 3Z" fill="#979899"/>
<path d="M27 19.39H24C23.7348 19.39 23.4804 19.2846 23.2929 19.0971C23.1054 18.9096 23 18.6552 23 18.39C23 18.1248 23.1054 17.8704 23.2929 17.6829C23.4804 17.4953 23.7348 17.39 24 17.39H27C27.5304 17.39 28.0391 17.1793 28.4142 16.8042C28.7893 16.4291 29 15.9204 29 15.39V14.32L26.45 13.32C26.3278 13.2715 26.2164 13.1994 26.122 13.1078C26.0277 13.0162 25.9524 12.9069 25.9004 12.7861C25.8484 12.6654 25.8207 12.5356 25.8189 12.4041C25.8171 12.2726 25.8413 12.1421 25.89 12.02C25.9861 11.7738 26.1757 11.5757 26.4174 11.4689C26.6591 11.3621 26.9333 11.3553 27.18 11.45L30.37 12.7C30.5561 12.7741 30.7156 12.9024 30.8279 13.0682C30.9402 13.234 31.0002 13.4297 31 13.63V15.38C31.0013 15.9061 30.8988 16.4273 30.6984 16.9138C30.498 17.4002 30.2035 17.8424 29.832 18.2149C29.4604 18.5874 29.019 18.8829 28.533 19.0846C28.0471 19.2862 27.5261 19.39 27 19.39Z" fill="#979899"/>
</svg>
