<svg width="32" height="32" viewBox="0 0 32 32" fill="none" xmlns="http://www.w3.org/2000/svg">
<g clip-path="url(#clip0_51_230)">
<path d="M16 9.75C14.7639 9.75 13.5555 10.1166 12.5277 10.8033C11.4999 11.4901 10.6988 12.4662 10.2258 13.6082C9.75271 14.7503 9.62894 16.0069 9.87009 17.2193C10.1113 18.4317 10.7065 19.5453 11.5806 20.4194C12.4547 21.2935 13.5683 21.8888 14.7807 22.1299C15.9931 22.3711 17.2497 22.2473 18.3918 21.7742C19.5338 21.3012 20.5099 20.5001 21.1967 19.4723C21.8834 18.4445 22.25 17.2361 22.25 16C22.25 14.3424 21.5915 12.7527 20.4194 11.5806C19.2473 10.4085 17.6576 9.75 16 9.75ZM16 20.75C15.0605 20.75 14.1422 20.4714 13.361 19.9495C12.5799 19.4275 11.9711 18.6857 11.6116 17.8177C11.2521 16.9498 11.158 15.9947 11.3413 15.0733C11.5246 14.1519 11.9769 13.3055 12.6412 12.6412C13.3055 11.9769 14.1519 11.5245 15.0733 11.3413C15.9947 11.158 16.9498 11.2521 17.8177 11.6116C18.6857 11.9711 19.4275 12.5799 19.9495 13.361C20.4714 14.1422 20.75 15.0605 20.75 16C20.75 17.2598 20.2496 18.468 19.3588 19.3588C18.468 20.2496 17.2598 20.75 16 20.75Z" fill="#979899"/>
<path d="M30.25 12H28.0175C27.9655 11.9996 27.9149 11.983 27.8728 11.9526C27.8307 11.9221 27.7991 11.8793 27.7825 11.83C27.6372 11.4173 27.4703 11.0126 27.2825 10.6175C27.2591 10.5709 27.2508 10.5181 27.2589 10.4665C27.2669 10.415 27.2909 10.3672 27.3275 10.33L28.905 8.75C29.0675 8.58749 29.1964 8.39457 29.2844 8.18224C29.3724 7.96991 29.4176 7.74233 29.4176 7.5125C29.4176 7.28267 29.3724 7.05509 29.2844 6.84276C29.1964 6.63043 29.0675 6.4375 28.905 6.275L25.7225 3.095C25.56 2.93248 25.3671 2.80356 25.1547 2.7156C24.9424 2.62764 24.7148 2.58237 24.485 2.58237C24.2552 2.58237 24.0276 2.62764 23.8153 2.7156C23.6029 2.80356 23.41 2.93248 23.2475 3.095L21.67 4.6725C21.6328 4.70907 21.585 4.73307 21.5335 4.74114C21.4819 4.74921 21.4291 4.74094 21.3825 4.7175C20.9874 4.52963 20.5827 4.36273 20.17 4.2175C20.1207 4.20087 20.0779 4.16929 20.0474 4.12717C20.017 4.08505 20.0004 4.03448 20 3.9825V1.75C20 1.28587 19.8156 0.840752 19.4874 0.512563C19.1592 0.184374 18.7141 0 18.25 0H13.75C13.2859 0 12.8408 0.184374 12.5126 0.512563C12.1844 0.840752 12 1.28587 12 1.75V3.9825C11.9996 4.03448 11.983 4.08505 11.9526 4.12717C11.9221 4.16929 11.8793 4.20087 11.83 4.2175C11.4173 4.36279 11.0126 4.52969 10.6175 4.7175C10.5709 4.74094 10.5181 4.74921 10.4665 4.74114C10.415 4.73307 10.3672 4.70907 10.33 4.6725L8.75 3.095C8.58749 2.93248 8.39457 2.80356 8.18224 2.7156C7.96991 2.62764 7.74233 2.58237 7.5125 2.58237C7.28267 2.58237 7.05509 2.62764 6.84276 2.7156C6.63043 2.80356 6.4375 2.93248 6.275 3.095L3.095 6.2775C2.93248 6.44 2.80356 6.63293 2.7156 6.84526C2.62764 7.05759 2.58237 7.28517 2.58237 7.515C2.58237 7.74483 2.62764 7.97241 2.7156 8.18474C2.80356 8.39707 2.93248 8.58999 3.095 8.7525L4.6725 10.33C4.70907 10.3672 4.73307 10.415 4.74114 10.4665C4.74921 10.5181 4.74094 10.5709 4.7175 10.6175C4.52963 11.0126 4.36273 11.4173 4.2175 11.83C4.20087 11.8793 4.16929 11.9221 4.12717 11.9526C4.08505 11.983 4.03448 11.9996 3.9825 12H1.75C1.28587 12 0.840752 12.1844 0.512563 12.5126C0.184374 12.8408 0 13.2859 0 13.75L0 18.25C0 18.7141 0.184374 19.1592 0.512563 19.4874C0.840752 19.8156 1.28587 20 1.75 20H3.9825C4.03448 20.0004 4.08505 20.017 4.12717 20.0474C4.16929 20.0779 4.20087 20.1207 4.2175 20.17C4.36279 20.5827 4.52969 20.9874 4.7175 21.3825C4.74094 21.4291 4.74921 21.4819 4.74114 21.5335C4.73307 21.585 4.70907 21.6328 4.6725 21.67L3.095 23.25C2.93248 23.4125 2.80356 23.6054 2.7156 23.8178C2.62764 24.0301 2.58237 24.2577 2.58237 24.4875C2.58237 24.7173 2.62764 24.9449 2.7156 25.1572C2.80356 25.3696 2.93248 25.5625 3.095 25.725L6.2775 28.9075C6.44 29.07 6.63293 29.1989 6.84526 29.2869C7.05759 29.3749 7.28517 29.4201 7.515 29.4201C7.74483 29.4201 7.97241 29.3749 8.18474 29.2869C8.39707 29.1989 8.58999 29.07 8.7525 28.9075L10.33 27.33C10.3672 27.2934 10.415 27.2694 10.4665 27.2614C10.5181 27.2533 10.5709 27.2616 10.6175 27.285C11.0126 27.4729 11.4173 27.6398 11.83 27.785C11.8793 27.8016 11.9221 27.8332 11.9526 27.8753C11.983 27.9174 11.9996 27.968 12 28.02V30.25C12 30.7141 12.1844 31.1592 12.5126 31.4874C12.8408 31.8156 13.2859 32 13.75 32H18.25C18.7141 32 19.1592 31.8156 19.4874 31.4874C19.8156 31.1592 20 30.7141 20 30.25V28.0175C20.0004 27.9655 20.017 27.9149 20.0474 27.8728C20.0779 27.8307 20.1207 27.7991 20.17 27.7825C20.5827 27.6372 20.9874 27.4703 21.3825 27.2825C21.4291 27.2591 21.4819 27.2508 21.5335 27.2589C21.585 27.2669 21.6328 27.2909 21.67 27.3275L23.25 28.905C23.4125 29.0675 23.6054 29.1964 23.8178 29.2844C24.0301 29.3724 24.2577 29.4176 24.4875 29.4176C24.7173 29.4176 24.9449 29.3724 25.1572 29.2844C25.3696 29.1964 25.5625 29.0675 25.725 28.905L28.9075 25.7225C29.07 25.56 29.1989 25.3671 29.2869 25.1547C29.3749 24.9424 29.4201 24.7148 29.4201 24.485C29.4201 24.2552 29.3749 24.0276 29.2869 23.8153C29.1989 23.6029 29.07 23.41 28.9075 23.2475L27.33 21.67C27.2934 21.6328 27.2694 21.585 27.2614 21.5335C27.2533 21.4819 27.2616 21.4291 27.285 21.3825C27.4729 20.9874 27.6398 20.5827 27.785 20.17C27.8016 20.1207 27.8332 20.0779 27.8753 20.0474C27.9174 20.017 27.968 20.0004 28.02 20H30.25C30.7141 20 31.1592 19.8156 31.4874 19.4874C31.8156 19.1592 32 18.7141 32 18.25V13.75C32 13.2859 31.8156 12.8408 31.4874 12.5126C31.1592 12.1844 30.7141 12 30.25 12ZM30.5 18.25C30.5 18.3163 30.4737 18.3799 30.4268 18.4268C30.3799 18.4737 30.3163 18.5 30.25 18.5H28.0175C27.6549 18.5004 27.3014 18.6134 27.0058 18.8235C26.7102 19.0335 26.4872 19.3302 26.3675 19.6725C26.2396 20.035 26.0927 20.3904 25.9275 20.7375C25.7691 21.0646 25.7165 21.433 25.777 21.7914C25.8374 22.1498 26.008 22.4805 26.265 22.7375L27.8425 24.315C27.8891 24.3618 27.9152 24.4252 27.9152 24.4912C27.9152 24.5573 27.8891 24.6207 27.8425 24.6675L24.6625 27.845C24.6157 27.8916 24.5523 27.9177 24.4862 27.9177C24.4202 27.9177 24.3568 27.8916 24.31 27.845L22.7325 26.2675C22.4755 26.0105 22.1448 25.8399 21.7864 25.7795C21.428 25.719 21.0596 25.7716 20.7325 25.93C20.3846 26.0953 20.0283 26.2422 19.665 26.37C19.3232 26.4901 19.027 26.7133 18.8175 27.0088C18.6079 27.3044 18.4952 27.6577 18.495 28.02V30.25C18.495 30.3163 18.4687 30.3799 18.4218 30.4268C18.3749 30.4737 18.3113 30.5 18.245 30.5H13.75C13.6837 30.5 13.6201 30.4737 13.5732 30.4268C13.5263 30.3799 13.5 30.3163 13.5 30.25V28.0175C13.4996 27.6549 13.3866 27.3014 13.1765 27.0058C12.9665 26.7102 12.6698 26.4872 12.3275 26.3675C11.965 26.2396 11.6095 26.0927 11.2625 25.9275C10.9354 25.7691 10.567 25.7165 10.2086 25.777C9.85022 25.8374 9.51954 26.008 9.2625 26.265L7.685 27.8425C7.63816 27.8891 7.5748 27.9152 7.50875 27.9152C7.4427 27.9152 7.37934 27.8891 7.3325 27.8425L4.155 24.6625C4.10844 24.6157 4.0823 24.5523 4.0823 24.4862C4.0823 24.4202 4.10844 24.3568 4.155 24.31L5.7325 22.7325C5.98949 22.4755 6.16006 22.1448 6.22054 21.7864C6.28102 21.428 6.22841 21.0596 6.07 20.7325C5.9047 20.3846 5.75783 20.0283 5.63 19.665C5.50923 19.3245 5.28604 19.0297 4.99106 18.8211C4.69608 18.6126 4.34378 18.5004 3.9825 18.5H1.75C1.6837 18.5 1.62011 18.4737 1.57322 18.4268C1.52634 18.3799 1.5 18.3163 1.5 18.25V13.75C1.5 13.6837 1.52634 13.6201 1.57322 13.5732C1.62011 13.5263 1.6837 13.5 1.75 13.5H3.9825C4.34511 13.4996 4.69864 13.3866 4.99422 13.1765C5.2898 12.9665 5.51284 12.6698 5.6325 12.3275C5.76042 11.965 5.90729 11.6095 6.0725 11.2625C6.23091 10.9354 6.28352 10.567 6.22304 10.2086C6.16256 9.85022 5.99199 9.51954 5.735 9.2625L4.1575 7.685C4.11094 7.63816 4.0848 7.5748 4.0848 7.50875C4.0848 7.4427 4.11094 7.37934 4.1575 7.3325L7.3375 4.155C7.38434 4.10844 7.4477 4.0823 7.51375 4.0823C7.5798 4.0823 7.64316 4.10844 7.69 4.155L9.2675 5.7325C9.52454 5.98949 9.85522 6.16006 10.2136 6.22054C10.572 6.28102 10.9404 6.22841 11.2675 6.07C11.6154 5.9047 11.9717 5.75783 12.335 5.63C12.6755 5.50923 12.9703 5.28604 13.1789 4.99106C13.3874 4.69608 13.4996 4.34378 13.5 3.9825V1.75C13.5 1.6837 13.5263 1.62011 13.5732 1.57322C13.6201 1.52634 13.6837 1.5 13.75 1.5H18.25C18.3163 1.5 18.3799 1.52634 18.4268 1.57322C18.4737 1.62011 18.5 1.6837 18.5 1.75V3.9825C18.5004 4.34511 18.6134 4.69864 18.8235 4.99422C19.0335 5.2898 19.3302 5.51284 19.6725 5.6325C20.035 5.76042 20.3904 5.90729 20.7375 6.0725C21.0646 6.23091 21.433 6.28352 21.7914 6.22304C22.1498 6.16256 22.4805 5.99199 22.7375 5.735L24.315 4.1575C24.3618 4.11094 24.4252 4.0848 24.4912 4.0848C24.5573 4.0848 24.6207 4.11094 24.6675 4.1575L27.85 7.34C27.8966 7.38684 27.9227 7.4502 27.9227 7.51625C27.9227 7.5823 27.8966 7.64566 27.85 7.6925L26.2725 9.27C26.0155 9.52704 25.8449 9.85772 25.7845 10.2161C25.724 10.5745 25.7766 10.9429 25.935 11.27C26.1003 11.6179 26.2472 11.9742 26.375 12.3375C26.4951 12.6793 26.7183 12.9755 27.0138 13.185C27.3094 13.3946 27.6627 13.5073 28.025 13.5075H30.25C30.3163 13.5075 30.3799 13.5338 30.4268 13.5807C30.4737 13.6276 30.5 13.6912 30.5 13.7575V18.25Z" fill="#979899"/>
</g>
<defs>
<clipPath id="clip0_51_230">
<rect width="32" height="32" fill="white"/>
</clipPath>
</defs>
</svg>
