<svg width="39" height="48" fill="none" xmlns="http://www.w3.org/2000/svg"><path d="M37.949 11.876c0-.01 0-.01-.01-.019a1.237 1.237 0 00-.187-.298s0-.01-.01-.01l-4.1-4.249V3.887C33.64 1.743 31.889 0 29.735 0H4.833c-2.21 0-4 1.79-4 3.98v36.03c0 2.2 1.799 3.98 4 3.98h.393a4.003 4.003 0 003.98 3.635h24.8c2.21 0 3.999-1.79 3.999-3.98V12.22a.835.835 0 00-.056-.345zm-7.296-4.857l4.093 4.232h-4.093V7.02zm-27.862 33V3.98c0-1.128.918-2.041 2.05-2.041h24.904c1.077 0 1.948.867 1.948 1.939v1.398L30.38 3.934s-.009 0-.009-.01c-.028-.027-.065-.055-.093-.083-.02-.01-.029-.028-.047-.038a.52.52 0 00-.16-.084h-.009a1.043 1.043 0 00-.384-.074H9.216c-2.21 0-4 1.79-4 3.98V42.06h-.374c-1.133-.01-2.051-.923-2.051-2.041zm31.224 5.667h-24.8a2.046 2.046 0 01-2.05-2.041V7.615c0-1.127.917-2.04 2.05-2.04h19.48v6.646c0 .54.44.97.975.97h6.387v30.454a2.044 2.044 0 01-2.042 2.041z" fill="#979899"/><path d="M22.86 13.2h1.845a.971.971 0 00.974-.97c0-.54-.44-.97-.974-.97H22.86a.971.971 0 00-.974.97.965.965 0 00.974.97zm-11.462 0h6.162a.971.971 0 00.974-.97c0-.54-.44-.97-.974-.97h-6.162a.971.971 0 00-.974.97c-.01.532.43.97.974.97zm19.714 22.745H17.56a.971.971 0 00-.974.97c0 .53.44.969.974.969h13.552a.971.971 0 00.974-.97.972.972 0 00-.974-.97zm-17.326 0h-2.389a.971.971 0 00-.974.97c0 .53.44.969.974.969h2.389a.971.971 0 00.973-.97.97.97 0 00-.973-.97zm17.325-6.078H27.45a.97.97 0 00-.974.97c0 .53.44.969.974.969h3.662a.971.971 0 00.974-.97.97.97 0 00-.974-.969zm-19.714 1.948h10.808a.971.971 0 00.974-.97c0-.53-.44-.969-.974-.969H11.397a.971.971 0 00-.974.97c0 .531.431.97.974.97zm19.715-8.035H23.78a.971.971 0 00-.974.97c0 .53.44.969.974.969h7.333a.97.97 0 00.974-.97c0-.531-.43-.97-.974-.97zm-19.714 1.948h7.464a.97.97 0 00.974-.97c0-.53-.44-.969-.974-.969H11.39a.971.971 0 00-.974.97c0 .531.44.97.983.97zm19.714-8.212H17.56a.971.971 0 00-.974.97c0 .54.44.969.974.969h13.552a.971.971 0 00.974-.97.972.972 0 00-.974-.97zm-19.714 1.948h1.76a.971.971 0 00.974-.97.97.97 0 00-.974-.969h-1.76a.971.971 0 00-.974.97c-.01.53.43.969.974.969z" fill="#979899"/></svg>